<svg id="svg" fill="#ffffff" stroke="#ffffff" width="41" height="41" version="1.1" viewBox="144 144 512 512" xmlns="http://www.w3.org/2000/svg">
    <g id="IconSvg_bgCarrier" stroke-width="0"></g>
    <g id="IconSvg_tracerCarrier" stroke-linecap="round" stroke-linejoin="round" stroke="#CCCCCC" stroke-width="0">
      <g xmlns="http://www.w3.org/2000/svg">
  <path d="m302.76 330.17v-52.395-32.242c0-5.0391-1.6133-13.301 4.4336-14.812 2.1172-0.50391 5.2383-0.10156 7.5586-0.10156h18.941 62.27 135.93 17.836c2.9219 0 6.75-0.50391 8.8672 1.2109 2.6211 2.1172 2.1172 5.0391 2.1172 8.1602v13.703 120.31 140.86 41.414c0 6.5508 0.90625 13.301-7.5586 13.301-35.367 0.20312-70.734 0-106 0h-126.86c-3.7266 0-7.457 0.10156-11.285 0-5.2383-0.10156-6.5508-3.7266-6.5508-8.3633v-63.68-17.23c0-13-20.152-13-20.152 0v56.93c0 8.4648-0.10156 16.93 0 25.391 0.20312 15.012 10.984 26.602 26.098 27.105 10.578 0.30078 21.262 0 31.84 0h67.812 133.11 12.594c14.914-0.20312 26.5-10.984 27.004-25.996 0.30078-7.457 0-15.012 0-22.469v-130.18-139.15-33.555c0-9.5742-3.7266-18.641-12.09-23.98-5.7422-3.6289-11.992-4.0312-18.438-4.0312h-119.61-118.2c-7.6562 0-14.812 1.1094-20.957 6.3477-8.6641 7.3555-9.0703 17.332-9.0703 27.508v68.922 17.027c0.20312 12.895 20.355 12.895 20.355 0z"></path>
  <path d="m228.91 410.07h76.578 122.63 28.113c13 0 13-20.152 0-20.152h-76.578-122.63-28.113c-13 0-13 20.152 0 20.152z"></path>
  <path d="m375.21 482.22c25.895-21.867 51.891-43.832 77.789-65.695 3.7266-3.125 7.457-6.2461 11.184-9.3711 3.9297-3.3242 3.9297-10.984 0-14.207-25.895-21.867-51.891-43.832-77.789-65.695-3.7266-3.125-7.457-6.2461-11.184-9.3711-4.1328-3.5273-10.176-4.0312-14.207 0-3.6289 3.6289-4.1328 10.68 0 14.207 25.895 21.867 51.891 43.832 77.789 65.695 3.7266 3.125 7.457 6.2461 11.184 9.3711v-14.207c-25.895 21.867-51.891 43.832-77.789 65.695-3.7266 3.125-7.457 6.2461-11.184 9.3711-4.1328 3.5273-3.6289 10.578 0 14.207 4.0312 4.1328 9.9766 3.5273 14.207 0z"></path>
 </g>

      </g>
     <g id="IconSvg_iconCarrier">
      <g xmlns="http://www.w3.org/2000/svg">
  <path d="m302.76 330.17v-52.395-32.242c0-5.0391-1.6133-13.301 4.4336-14.812 2.1172-0.50391 5.2383-0.10156 7.5586-0.10156h18.941 62.27 135.93 17.836c2.9219 0 6.75-0.50391 8.8672 1.2109 2.6211 2.1172 2.1172 5.0391 2.1172 8.1602v13.703 120.31 140.86 41.414c0 6.5508 0.90625 13.301-7.5586 13.301-35.367 0.20312-70.734 0-106 0h-126.86c-3.7266 0-7.457 0.10156-11.285 0-5.2383-0.10156-6.5508-3.7266-6.5508-8.3633v-63.68-17.23c0-13-20.152-13-20.152 0v56.93c0 8.4648-0.10156 16.93 0 25.391 0.20312 15.012 10.984 26.602 26.098 27.105 10.578 0.30078 21.262 0 31.84 0h67.812 133.11 12.594c14.914-0.20312 26.5-10.984 27.004-25.996 0.30078-7.457 0-15.012 0-22.469v-130.18-139.15-33.555c0-9.5742-3.7266-18.641-12.09-23.98-5.7422-3.6289-11.992-4.0312-18.438-4.0312h-119.61-118.2c-7.6562 0-14.812 1.1094-20.957 6.3477-8.6641 7.3555-9.0703 17.332-9.0703 27.508v68.922 17.027c0.20312 12.895 20.355 12.895 20.355 0z"></path>
  <path d="m228.91 410.07h76.578 122.63 28.113c13 0 13-20.152 0-20.152h-76.578-122.63-28.113c-13 0-13 20.152 0 20.152z"></path>
  <path d="m375.21 482.22c25.895-21.867 51.891-43.832 77.789-65.695 3.7266-3.125 7.457-6.2461 11.184-9.3711 3.9297-3.3242 3.9297-10.984 0-14.207-25.895-21.867-51.891-43.832-77.789-65.695-3.7266-3.125-7.457-6.2461-11.184-9.3711-4.1328-3.5273-10.176-4.0312-14.207 0-3.6289 3.6289-4.1328 10.68 0 14.207 25.895 21.867 51.891 43.832 77.789 65.695 3.7266 3.125 7.457 6.2461 11.184 9.3711v-14.207c-25.895 21.867-51.891 43.832-77.789 65.695-3.7266 3.125-7.457 6.2461-11.184 9.3711-4.1328 3.5273-3.6289 10.578 0 14.207 4.0312 4.1328 9.9766 3.5273 14.207 0z"></path>
 </g>

      </g>
      </svg>